<svg id="SvgjsSvg1067" width="288" height="288" xmlns="http://www.w3.org/2000/svg" version="1.1" xmlns:xlink="http://www.w3.org/1999/xlink" xmlns:svgjs="http://svgjs.com/svgjs"><defs id="SvgjsDefs1068"></defs><g id="SvgjsG1069"><svg xmlns="http://www.w3.org/2000/svg" viewBox="0 0 25 25" width="288" height="288"><g data-name="Layer 2" fill="#000000" class="color000 svgShape"><g data-name="Layer 1 copy" fill="#000000" class="color000 svgShape"><g data-name="invision round" fill="#000000" class="color000 svgShape"><circle cx="12.5" cy="12.5" r="7.85" fill="#ff0000" class="color1fb6ff svgShape"></circle><path fill="#000000" d="M12.5 5.25a7.25 7.25 0 1 1-7.25 7.25 7.26 7.26 0 0 1 7.25-7.25m0-.6a7.85 7.85 0 1 0 7.85 7.85 7.85 7.85 0 0 0-7.85-7.85z" class="color039be4 svgShape"></path><path fill="none" d="M0 0h25v25H0z"></path><path fill="#000000" d="M16.13 13.15a18.36 18.36 0 0 0-7.6.93c-.39.17-.42.39-.36.52a.34.34 0 0 0 .44 0 16 16 0 0 1 7.51-1.25.12.12 0 1 0 0-.25zm.93-1.15c-.16.17-.39.31-.46.24s0-.27 0-.27c.37-.24 1.09-.84 1.09-1.3s-.39-.56-.8-.16a3 3 0 0 0-.7 1.25 1.45 1.45 0 0 1-.86.48c-.16 0-.2-.11-.18-.26.26 0 1-.2 1-.8a.37.37 0 0 0-.12-.26.37.37 0 0 0-.27-.09 1.24 1.24 0 0 0-.95.79l-.16-.05a2 2 0 0 0 .13-.35c0-.24-.06-.39-.26-.38a.38.38 0 0 0-.31.38.71.71 0 0 0 .07.38c-.09.27-.45.61-.57.6s0-.5.14-.86a.68.68 0 0 0 .16-.24.15.15 0 0 0-.06-.2.38.38 0 0 0-.48.2 1.66 1.66 0 0 0-.13.27c-.1.12-.26.27-.31.26s.16-.34.13-.5a.26.26 0 0 0-.28-.22c-.2 0-.48.41-.48.41a.73.73 0 0 0 .06-.22c0-.14-.28-.21-.42.05a3.93 3.93 0 0 0-.2.78c-.06.12-.28.48-.46.49s0-.63.06-.66a.93.93 0 0 0 .16-.49.19.19 0 0 0-.06-.14.17.17 0 0 0-.15 0 .34.34 0 0 0-.21.16.28.28 0 0 0-.27-.1c-.6.06-1 1.09-.94 1.57 0 .26.16.42.39.39s.48-.41.48-.41.06.31.34.27a1.05 1.05 0 0 0 .53-.37.17.17 0 0 0 0 .05c0 .26.39.23.43 0 .13-1 .46-1.39.56-1.39s-.21.46 0 .64.36 0 .55-.13a1.65 1.65 0 0 0-.06.38c0 .27.09.49.36.49s.74-.45 1-.87a.7.7 0 0 0 .21.09 1 1 0 0 0 0 .3.44.44 0 0 0 .51.43 1.72 1.72 0 0 0 .91-.45c0 .16 0 .44.24.45a1.42 1.42 0 0 0 .93-.52c.19-.12 0-.3-.13-.15zm.24-1.33a.05.05 0 0 1 0 .05c0 .27-.7.86-.7.86s.46-.91.66-.91zm-1.69.57a.09.09 0 0 1 .06 0 .07.07 0 0 1 0 .06c0 .16-.21.27-.45.27.15-.11.3-.29.4-.29zm-4.67.43c0 .16-.31.9-.48.9s.1-1 .43-1c.06 0 .06 0 0 .13zm-2.54.2c.19 0-.16 1-.11 1.41s.53.31.49.05c-.06-.42.24-1.75.53-1.75s-.24.92-.14 1.48c.06.38.57.26.52 0-.16-.75.37-1.47.3-2 0-.22-.16-.34-.31-.34-.49 0-.88 1-.88 1s0-.55-.35-.57c-.57 0-1.15 1.38-1.14 2.66a.25.25 0 1 0 .49 0c0-.57.31-1.94.6-1.94z" class="colorfff svgShape"></path></g></g></g></svg></g></svg>